<?xml version="1.0" encoding="UTF-8" standalone="no"?>
<!-- Created with Inkscape (http://www.inkscape.org/) -->

<svg
   xmlns:dc="http://purl.org/dc/elements/1.1/"
   xmlns:cc="http://creativecommons.org/ns#"
   xmlns:rdf="http://www.w3.org/1999/02/22-rdf-syntax-ns#"
   xmlns:svg="http://www.w3.org/2000/svg"
   xmlns="http://www.w3.org/2000/svg"
   xmlns:sodipodi="http://sodipodi.sourceforge.net/DTD/sodipodi-0.dtd"
   xmlns:inkscape="http://www.inkscape.org/namespaces/inkscape"
   width="565"
   height="156"
   id="svg4286"
   version="1.1"
   inkscape:version="0.48.5 r10040"
   viewBox="0 0 565 156"
   sodipodi:docname="logo.svg">
  <defs
     id="defs4288">
    <filter
       style="color-interpolation-filters:sRGB;"
       inkscape:label="Drop Shadow"
       id="filter4500">
      <feFlood
         flood-opacity="0.5"
         flood-color="rgb(255,255,255)"
         result="flood"
         id="feFlood4502" />
      <feComposite
         in="flood"
         in2="SourceGraphic"
         operator="in"
         result="composite1"
         id="feComposite4504" />
      <feOffset
         dx="4"
         dy="4"
         result="offset"
         id="feOffset4506" />
      <feComposite
         in="SourceGraphic"
         in2="offset"
         operator="over"
         result="fbSourceGraphic"
         id="feComposite4508" />
      <feColorMatrix
         result="fbSourceGraphicAlpha"
         in="fbSourceGraphic"
         values="0 0 0 -1 0 0 0 0 -1 0 0 0 0 -1 0 0 0 0 1 0"
         id="feColorMatrix4510" />
      <feFlood
         id="feFlood4512"
         flood-opacity="0.5"
         flood-color="rgb(255,255,255)"
         result="flood"
         in="fbSourceGraphic" />
      <feComposite
         id="feComposite4514"
         in2="fbSourceGraphic"
         in="flood"
         operator="in"
         result="composite1" />
      <feOffset
         id="feOffset4516"
         dx="4"
         dy="4"
         result="offset" />
      <feComposite
         id="feComposite4518"
         in2="offset"
         in="fbSourceGraphic"
         operator="over"
         result="composite2" />
    </filter>
    <clipPath
       id="clipPath3845"
       clipPathUnits="userSpaceOnUse">
      <path
         id="path3847"
         d="m 0,841.89 595.276,0 L 595.276,0 0,0 0,841.89 z" />
    </clipPath>
    <clipPath
       id="clipPath3845-3"
       clipPathUnits="userSpaceOnUse">
      <path
         inkscape:connector-curvature="0"
         id="path3847-6"
         d="m 0,841.89 595.276,0 L 595.276,0 0,0 0,841.89 z" />
    </clipPath>
    <clipPath
       id="clipPath3845-3-5"
       clipPathUnits="userSpaceOnUse">
      <path
         inkscape:connector-curvature="0"
         id="path3847-6-7"
         d="m 0,841.89 595.276,0 L 595.276,0 0,0 0,841.89 z" />
    </clipPath>
  </defs>
  <sodipodi:namedview
     id="base"
     pagecolor="#ffffff"
     bordercolor="#666666"
     borderopacity="1.0"
     inkscape:pageopacity="0.0"
     inkscape:pageshadow="2"
     inkscape:zoom="0.7"
     inkscape:cx="189.7616"
     inkscape:cy="38.254552"
     inkscape:document-units="px"
     inkscape:current-layer="g3200"
     showgrid="false"
     inkscape:window-width="1280"
     inkscape:window-height="961"
     inkscape:window-x="-8"
     inkscape:window-y="-8"
     inkscape:window-maximized="1" />
  <metadata
     id="metadata4291">
    <rdf:RDF>
      <cc:Work
         rdf:about="">
        <dc:format>image/svg+xml</dc:format>
        <dc:type
           rdf:resource="http://purl.org/dc/dcmitype/StillImage" />
        <dc:title />
      </cc:Work>
    </rdf:RDF>
  </metadata>
  <g
     inkscape:label="Layer 1"
     inkscape:groupmode="layer"
     id="layer1"
     transform="translate(0,-896.3622)">
    <g
       id="g3200"
       transform="translate(33.333166,-303.22644)">
      <path
         style="fill:#91aa97;fill-opacity:1;stroke:none"
         id="path4174-7-4-4"
         sodipodi:type="arc"
         sodipodi:cx="174.83096"
         sodipodi:cy="504.6268"
         sodipodi:rx="77.510376"
         sodipodi:ry="77.512123"
         sodipodi:start="3.139603"
         sodipodi:end="9.4209382"
         sodipodi:open="true"
         d="m 97.320741,504.78102 a 77.510376,77.512123 0 1 1 4.18e-4,0.14341"
         transform="translate(-130.65375,773.44971)" />
      <path
         style="font-size:180px;font-style:normal;font-variant:normal;font-weight:normal;font-stretch:normal;text-align:start;line-height:125%;letter-spacing:0px;word-spacing:0px;writing-mode:lr-tb;text-anchor:start;fill:#ffffff;fill-opacity:1;stroke:none;font-family:Adobe Garamond Pro;-inkscape-font-specification:'Adobe Garamond Pro, Normal'"
         d="m 114.082,1232.2773 c -18.101711,8.2672 -30.376131,12.2455 -46.846181,15.1831 -2.37834,0.4242 -5.69655,1.0715 -7.37375,1.4384 -3.95057,0.8643 -13.23558,3.7402 -17.18661,5.3232 -22.865309,9.1613 -38.6093397,23.4739 -45.5505094,41.4091 -0.87624,2.2644 -2.00949,6.0256 -2.6929,8.9383 -0.11927,0.5089 0.6215,-0.023 4.01435,-2.8842 6.4703197,-5.4553 11.7101304,-9.1235 20.0709104,-14.0507 10.029699,-5.9107 18.080299,-9.8941 40.440859,-20.0099 8.25116,-3.7328 10.03889,-4.6678 16.10047,-8.4218 5.42159,-3.3578 9.6598,-5.5624 12.80061,-6.6587 0.22904,-0.079 -0.21217,0.3673 -5.60802,5.6928 -4.55661,4.4972 -7.72038,7.2609 -10.01152,8.7456 -3.09155,2.0035 -10.5332,5.5586 -23.91056,11.423 -19.69521,8.6339 -25.33775,11.3631 -33.898159,16.3955 -17.7971004,10.4626 -28.420171,21.7535 -34.841291,37.0319 l -1.09264,2.5997 0.55926,4.1657 c 0.30735,2.2911 0.62509,4.1818 0.70566,4.2015 0.0806,0.019 0.14944,-0.091 0.15339,-0.2459 0.0132,-0.4697 2.44956,-7.9968 3.3757,-10.4208 1.22019,-3.1939 3.63211,-7.8011 5.299661,-10.1232 7.5394496,-10.4992 20.9164692,-17.006 45.881269,-22.3176 11.40945,-2.4275 19.22656,-4.9972 27.61767,-9.0788 17.1275,-8.3312 30.46764,-20.949 44.069031,-41.6823 2.70773,-4.1275 11.49814,-18.0968 11.43619,-18.1738 -0.026,-0.035 -1.60813,0.65 -3.51265,1.5199 z"
         id="path3376-0-7-5-9-7-8-0"
         inkscape:connector-curvature="0"
         sodipodi:nodetypes="csssscsssscssssscsssssssscc"
         inkscape:transform-center-y="1.8456571"
         inkscape:transform-center-x="-3.9978004" />
      <g
         style="font-size:48.33507538px;font-style:normal;font-weight:normal;line-height:125%;letter-spacing:0px;word-spacing:0px;fill:#91aa97;fill-opacity:1;stroke:none;font-family:Sans"
         id="text3000"
         transform="translate(10,0)">
        <path
           d="m 157.70589,1279.2671 c 0.13318,-16.6216 1.54884,-28.8899 4.24699,-36.805 2.69811,-7.915 5.87959,-13.0169 9.54444,-15.306 3.66479,-2.2887 7.01383,-3.3048 10.04712,-3.0482 2.27061,-0.3018 5.28882,0.5339 9.05466,2.5069 3.76573,1.9732 7.18351,6.8947 10.25334,14.7646 3.06972,7.87 4.6959,20.4992 4.87857,37.8877 -0.15044,15.4059 -1.64773,27.0319 -4.49189,34.8782 -2.84427,7.8463 -6.13316,13.0922 -9.86667,15.7377 -3.73361,2.6455 -7.00961,3.87 -9.82801,3.6734 -4.95189,0.5546 -10.05601,-2.8602 -15.31235,-10.2445 -5.25639,-7.3843 -8.09845,-22.0658 -8.5262,-44.0448 z m 23.83855,-64.9035 c -5.07945,-0.336 -10.23297,0.9164 -15.46058,3.7572 -5.22766,2.8411 -9.63361,9.2879 -13.21786,19.3402 -3.58428,10.0526 -5.45106,25.728 -5.60035,47.0262 0.43863,23.2405 4.17246,39.0096 11.20151,47.3074 7.02901,8.2978 14.72143,12.1911 23.07728,11.68 5.19323,0.3126 10.42838,-0.8152 15.70548,-3.3834 5.27699,-2.5682 9.71301,-8.4521 13.30808,-17.6517 3.59494,-9.1997 5.46602,-23.5904 5.61325,-43.1724 -0.17045,-24.1719 -3.39678,-41.1228 -9.67898,-50.8527 -6.28233,-9.7296 -14.59826,-14.4132 -24.94783,-14.0508 z"
           style="font-size:174.00627136px;font-variant:normal;font-stretch:normal;letter-spacing:25.45999908px;fill:#91aa97;font-family:Pupcat Rg;-inkscape-font-specification:Pupcat Rg"
           id="path3823"
           inkscape:connector-curvature="0" />
        <path
           d="m 254.74507,1217.4957 c 0.551,3.4512 0.84101,10.2954 0.87002,20.5325 -0.044,13.4768 -0.40065,27.8783 -1.0698,43.2045 -0.66917,15.3264 -1.38667,28.671 -2.1525,40.0338 -0.76583,11.3629 -1.31577,17.8376 -1.64981,19.4241 l 24.01255,0 c 6.98913,0 12.84726,0.348 17.57441,1.044 -0.49306,-2.0591 -0.72506,-4.2051 -0.69601,-6.4382 -0.0291,-1.885 0.20296,-3.8571 0.69601,-5.9161 -3.37137,0.6888 -7.06895,1.1818 -11.09276,1.479 -4.02387,0.2973 -7.98246,0.4423 -11.87577,0.435 l -7.48217,0 c 0.1468,-1.7767 0.46218,-8.1849 0.94614,-19.2247 0.48393,-11.0397 1.03857,-23.6196 1.66392,-37.7398 0.6253,-14.1201 1.22344,-26.6892 1.79442,-37.7073 0.57093,-11.0178 1.01681,-17.3934 1.33765,-19.1268 -2.23307,0.3481 -4.37912,0.5221 -6.43815,0.522 -1.05129,10e-5 -2.12431,-0.043 -3.21908,-0.1305 -1.09479,-0.087 -2.16781,-0.2174 -3.21907,-0.3915 z"
           style="font-size:174.00627136px;font-variant:normal;font-stretch:normal;letter-spacing:25.45999908px;fill:#91aa97;font-family:Pupcat Rg;-inkscape-font-specification:Pupcat Rg"
           id="path3825"
           inkscape:connector-curvature="0" />
        <path
           d="m 333.00504,1266.0428 c -0.072,-5.0116 0.55529,-10.7645 1.88182,-17.2586 1.32649,-6.4939 3.78403,-12.1952 7.37261,-17.104 3.58854,-4.9085 8.73991,-7.4906 15.45414,-7.7464 5.2672,-0.051 9.65355,2.835 13.15905,8.6568 3.5054,5.8219 5.32519,14.8846 5.45938,27.1881 0.029,2.0881 -0.029,4.1762 -0.174,6.2641 -6.11919,0.3481 -12.32533,0.5221 -18.61843,0.522 -8.17822,10e-5 -16.3564,-0.1739 -24.53457,-0.522 z m 53.59324,9.7442 c -0.0581,-6.4997 -0.29007,-12.771 -0.69601,-18.8141 -0.40608,-6.043 -1.1601,-12.0098 -2.26206,-17.9007 -1.64222,-7.7757 -4.88305,-13.7136 -9.72247,-17.8137 -4.83954,-4.0998 -10.29891,-6.1661 -16.37813,-6.1989 -14.46049,0.3736 -23.95095,6.5869 -28.47141,18.6402 -4.52049,12.0535 -6.57228,27.7066 -6.15539,46.9594 -0.0977,8.3114 0.87109,17.1319 2.90651,26.4615 2.0354,9.3296 5.72386,17.3252 11.06537,23.9867 5.34147,6.6616 12.92245,10.146 22.74297,10.4532 10.63957,-0.1813 18.24499,-4.4734 22.81628,-12.8763 4.57116,-8.403 6.99996,-19.8292 7.28641,-34.2788 -1.74011,0.203 -3.48014,0.319 -5.22012,0.348 -1.12384,0.01 -2.26936,-0.051 -3.43658,-0.174 -1.16734,-0.1232 -2.39986,-0.3552 -3.69758,-0.696 0.89896,4.1761 1.36297,8.3522 1.39203,12.5283 -0.0581,6.6919 -1.7256,12.5355 -5.00262,17.5309 -3.27712,4.9953 -7.81572,7.6199 -13.61581,7.8736 -7.77584,-0.2755 -14.27924,-4.9011 -19.5102,-13.8768 -5.23102,-8.9757 -7.94983,-20.6484 -8.15644,-35.0183 -0.029,-2.291 0.029,-4.669 0.174,-7.1342 4.53496,0.1741 9.08082,0.3046 13.63757,0.3916 4.55669,0.087 9.05904,0.1305 13.50706,0.1305 9.01916,0 17.95136,-0.174 26.79662,-0.5221 z"
           style="font-size:174.00627136px;font-variant:normal;font-stretch:normal;letter-spacing:25.45999908px;fill:#91aa97;font-family:Pupcat Rg;-inkscape-font-specification:Pupcat Rg"
           id="path3827"
           inkscape:connector-curvature="0" />
        <path
           d="m 482.81636,1263.6068 c 0.0688,-9.8058 -0.19945,-17.9042 -0.80477,-24.2953 -0.60546,-6.391 -1.96124,-11.2268 -4.06735,-14.5076 -2.35273,-3.3205 -5.43405,-5.8581 -9.24396,-7.6127 -3.81001,-1.7544 -7.80485,-2.6389 -11.98453,-2.6536 -7.38795,-0.3188 -13.71009,1.9287 -18.96644,6.7427 -5.25638,4.8142 -8.96847,14.1089 -11.13625,27.8841 2.15691,-0.018 4.2812,0.018 6.37289,0.1088 2.09166,0.091 4.25946,0.3445 6.5034,0.7613 -0.0906,-1.0331 -0.1704,-2.0119 -0.23926,-2.9364 -0.0689,-0.9243 -0.10514,-1.8595 -0.10874,-2.8058 0.15223,-8.0874 2.02277,-13.5758 5.61163,-16.4651 3.5888,-2.8891 7.9824,-4.2449 13.1808,-4.0674 5.17295,-0.2608 9.18229,2.1752 12.02803,7.3082 2.84563,5.1332 4.28842,14.5294 4.32835,28.1887 0.029,2.7551 -0.0291,5.5972 -0.174,8.5262 -1.99386,-3.1683 -4.61842,-5.6623 -7.87369,-7.4822 -3.25537,-1.8197 -6.66295,-2.7477 -10.22273,-2.7841 -9.85301,0.018 -17.59618,3.6796 -23.22954,10.984 -5.63339,7.3046 -8.50446,18.1436 -8.6132,32.517 -1e-5,10.2518 2.56655,19.59 7.69968,28.0147 5.1331,8.4247 12.83277,12.8908 23.09903,13.3983 4.28119,-0.014 7.94252,-0.899 10.98401,-2.6536 3.04139,-1.7545 5.35419,-4.2921 6.93841,-7.6126 -0.004,1.4427 0.22108,3.1683 0.67426,5.1766 0.45308,2.0083 1.15635,3.4728 2.1098,4.3936 2.25474,-0.4242 4.48779,-0.7069 6.69915,-0.8483 2.21124,-0.1414 4.44429,-0.2066 6.69916,-0.1957 -2.08811,-2.5122 -3.65415,-5.1005 -4.69811,-7.765 -1.04408,-2.6644 -1.5661,-5.4702 -1.56603,-8.4174 z m -10.09224,58.4653 c -1.87422,3.7085 -4.21602,6.3838 -7.02541,8.026 -2.80949,1.6421 -5.8038,2.4469 -8.98296,2.4143 -5.86246,-0.1697 -10.41663,-2.073 -13.66253,-5.7099 -3.24595,-3.6369 -5.50586,-7.9892 -6.77972,-13.0568 -1.2739,-5.0676 -1.88399,-9.8323 -1.83026,-14.2941 -0.058,-8.3594 1.53701,-15.7836 4.7851,-22.2725 3.24806,-6.4889 8.49717,-9.9109 15.74737,-10.2663 4.29568,0.033 8.10202,1.49 11.41902,4.3719 3.3169,2.882 5.4267,6.9928 6.32939,12.3325 z"
           style="font-size:174.00627136px;font-variant:normal;font-stretch:normal;letter-spacing:25.45999908px;fill:#91aa97;font-family:Pupcat Rg;-inkscape-font-specification:Pupcat Rg"
           id="path3829"
           inkscape:connector-curvature="0" />
      </g>
    </g>
  </g>
</svg>
